#!OML:ASF X:\für Bonn\!DataBase\2005_08_10_Bjorn_Final\c3d\bjorn.ASF
:FULLY-SPECIFIED
:DEGREES
202
root 0.14808 19.1635 -0.643633 -180.148 27.4337 184.698
lowerback -7.70104 3.87907 2.56488
upperback 4.62711 5.30744 -2.86096
thorax 9.78442 2.91227 -3.61968
lowerneck -3.21718 2.54373 9.40547
upperneck 15.0966 3.56037 -1.45906
head 5.27835 2.42903 -1.7749
rclavicle -1.96797e-014 4.77083e-015
rhumerus -273.487 16.8395 234.099
rradius 8.87696
rwrist 70.4744
rhand -23.1079 9.20601
rfingers 7.12502
rthumb 3.3389 -20.7476
lclavicle -1.96797e-014 4.77083e-015
lhumerus 68.1821 -15.1614 91.3274
lradius 40.9126
lwrist 46.0203
lhand -52.5343 1.50125
lfingers 7.12502
lthumb -25.0196 29.8828
rfemur 5.66432 6.59565 5.87838
rtibia 30.5629
rfoot 9.77209 19.3493
rtoes -19.7694
lfemur -9.72592 6.06824 -10.4621
ltibia 31.5222
lfoot -11.802 -12.6608
ltoes -5.15105
203
root 0.130947 19.161 -0.652556 -180.196 27.5642 184.498
lowerback -7.87069 3.89564 2.37338
upperback 4.64004 5.35779 -2.9102
thorax 9.88991 2.92748 -3.54545
lowerneck -3.2419 2.48443 9.49996
upperneck 15.4641 3.51301 -1.56016
head 5.39738 2.42601 -1.82221
rclavicle -8.64713e-015 2.54444e-014
rhumerus -273.89 16.6149 234.044
rradius 8.99778
rwrist 70.3254
rhand -23.2465 9.49768
rfingers 7.12502
rthumb 3.20505 -20.458
lclavicle -8.64713e-015 2.54444e-014
lhumerus 67.9606 -15.1561 91.2552
lradius 41.0012
lwrist 45.9614
lhand -52.328 1.46174
lfingers 7.12502
lthumb -24.8219 29.8706
rfemur 5.42215 6.61469 5.61411
rtibia 30.8774
rfoot 9.60454 19.3395
rtoes -19.9717
lfemur -9.58952 5.87103 -10.7789
ltibia 31.2734
lfoot -12.0709 -12.2735
ltoes -5.65049
204
root 0.114288 19.1628 -0.660454 -180.23 27.6835 184.281
lowerback -8.05583 3.91077 2.16842
upperback 4.64478 5.40806 -2.96023
thorax 9.99415 2.94117 -3.46375
lowerneck -3.39276 2.41885 9.55672
upperneck 16.0044 3.45457 -1.65089
head 5.59048 2.42354 -1.85845
rclavicle -1.51076e-014 7.95139e-015
rhumerus -274.279 16.3867 234.002
rradius 9.07735
rwrist 70.1908
rhand -23.4303 9.85343
rfingers 7.12502
rthumb 3.02759 -20.1048
lclavicle -1.51076e-014 7.95139e-015
lhumerus 67.7556 -15.1588 91.2096
lradius 41.0501
lwrist 45.9152
lhand -52.1044 1.30946
lfingers 7.12502
lthumb -24.6076 29.7477
rfemur 5.11859 6.58847 5.34163
rtibia 31.2295
rfoot 9.44009 19.3265
rtoes -20.4336
lfemur -9.46047 5.73407 -11.098
ltibia 30.9682
lfoot -12.1774 -11.9547
ltoes -5.93513
205
root 0.0977305 19.1684 -0.667673 -180.226 27.7943 184.044
lowerback -8.3097 3.93501 1.92838
upperback 4.66427 5.4749 -2.99719
thorax 10.1519 2.95985 -3.34048
lowerneck -3.58946 2.349 9.59462
upperneck 16.5136 3.38404 -1.75116
head 5.78134 2.41038 -1.89555
rclavicle -4.79071e-014 -2.54444e-014
rhumerus -274.592 16.1811 234.023
rradius 9.11378
rwrist 70.1069
rhand -23.6166 10.241
rfingers 7.12502
rthumb 2.84765 -19.7197
lclavicle -4.79071e-014 -2.54444e-014
lhumerus 67.5771 -15.1827 91.2283
lradius 41.1183
lwrist 45.8736
lhand -51.8779 1.14777
lfingers 7.12502
lthumb -24.3905 29.6154
rfemur 4.71473 6.46208 5.0301
rtibia 31.6178
rfoot 9.34396 19.3367
rtoes -21.0482
lfemur -9.3665 5.54734 -11.442
ltibia 30.616
lfoot -12.1937 -11.6231
ltoes -6.40475
206
root 0.0815822 19.178 -0.674135 -180.19 27.9091 183.826
lowerback -8.55845 3.96867 1.71134
upperback 4.66279 5.54906 -3.01865
thorax 10.2843 2.98127 -3.2128
lowerneck -3.71518 2.26402 9.53107
upperneck 16.9707 3.30349 -1.80514
head 5.94074 2.38833 -1.90381
rclavicle -5.69518e-014 -2.54444e-014
rhumerus -274.896 15.9614 234.075
rradius 9.15103
rwrist 70.0636
rhand -23.7803 10.5911
rfingers 7.12502
rthumb 2.68954 -19.3717
lclavicle -5.69518e-014 -2.54444e-014
lhumerus 67.3931 -15.2084 91.3161
lradius 41.1467
lwrist 45.7696
lhand -51.6065 0.933678
lfingers 7.12502
lthumb -24.1302 29.4361
rfemur 4.26196 6.34076 4.753
rtibia 32.0234
rfoot 9.22843 19.3291
rtoes -21.8085
lfemur -9.28951 5.3573 -11.7625
ltibia 30.2344
lfoot -12.1641 -11.2867
ltoes -6.75986
207
root 0.0659076 19.1904 -0.68035 -180.106 28.0129 183.638
lowerback -8.85845 3.98611 1.5158
upperback 4.66212 5.59707 -3.02501
thorax 10.4463 2.98982 -3.08224
lowerneck -3.76588 2.18848 9.45893
upperneck 17.3116 3.24287 -1.88732
head 6.05226 2.36783 -1.92015
rclavicle -3.08116e-014 2.8625e-014
rhumerus -275.199 15.8024 234.119
rradius 9.20388
rwrist 70.0245
rhand -23.79 10.9113
rfingers 7.12502
rthumb 2.68019 -19.0516
lclavicle -3.08116e-014 2.8625e-014
lhumerus 67.2119 -15.1857 91.4112
lradius 41.2005
lwrist 45.6499
lhand -51.3986 0.698468
lfingers 7.12502
lthumb -23.9309 29.2272
rfemur 3.77198 6.19829 4.51148
rtibia 32.4212
rfoot 9.10871 19.3153
rtoes -22.7226
lfemur -9.2469 5.14814 -12.0418
ltibia 29.8539
lfoot -12.0915 -10.9927
ltoes -6.96788
208
root 0.0500234 19.2036 -0.684974 -180.01 28.0978 183.483
lowerback -9.13312 3.99771 1.3691
upperback 4.67092 5.63255 -3.0299
thorax 10.6077 2.99569 -2.98084
lowerneck -3.74563 2.1241 9.33407
upperneck 17.5031 3.1917 -1.91423
head 6.10344 2.3452 -1.91129
rclavicle -2.31584e-014 -1.27222e-014
rhumerus -275.452 15.6824 234.165
rradius 9.25037
rwrist 70.1074
rhand -23.7018 11.1999
rfingers 7.12502
rthumb 2.76539 -18.7619
lclavicle -2.31584e-014 -1.27222e-014
lhumerus 67.0877 -15.1624 91.4641
lradius 41.2398
lwrist 45.6468
lhand -51.2065 0.334374
lfingers 7.12502
lthumb -23.7467 28.8872
rfemur 3.31244 6.02928 4.30107
rtibia 32.7855
rfoot 8.9992 19.3178
rtoes -23.511
lfemur -9.22829 4.86809 -12.2778
ltibia 29.5012
lfoot -12.0134 -10.7241
ltoes -6.68235
209
root 0.0350515 19.2165 -0.688122 -179.884 28.1775 183.387
lowerback -9.38294 3.99919 1.28569
upperback 4.65145 5.64281 -3.02849
thorax 10.7269 2.99219 -2.91531
lowerneck -3.6724 2.06676 9.1989
upperneck 17.6978 3.15943 -1.93054
head 6.14733 2.33362 -1.8966
rclavicle 9.24349e-014 -2.06736e-014
rhumerus -275.767 15.5469 234.174
rradius 9.33729
rwrist 70.238
rhand -23.5519 11.4149
rfingers 7.12502
rthumb 2.9101 -18.545
lclavicle 9.24349e-014 -2.06736e-014
lhumerus 66.9145 -15.1068 91.5474
lradius 41.2724
lwrist 45.5532
lhand -51.049 -0.0983841
lfingers 7.12502
lthumb -23.5956 28.4739
rfemur 2.89236 5.90554 4.16437
rtibia 33.1015
rfoot 8.90905 19.2538
rtoes -24.0577
lfemur -9.23386 4.57413 -12.4432
ltibia 29.1996
lfoot -11.95 -10.455
ltoes -6.3348
210
root 0.020638 19.2266 -0.689694 -179.785 28.2424 183.365
lowerback -9.54205 4.00615 1.31526
upperback 4.63434 5.64894 -3.05156
thorax 10.8092 2.99687 -2.94573
lowerneck -3.5757 2.00721 9.14484
upperneck 17.8789 3.12289 -1.96286
head 6.18459 2.3243 -1.90083
rclavicle -6.92765e-014 1.59028e-014
rhumerus -276.034 15.4349 234.122
rradius 9.39895
rwrist 70.4155
rhand -23.3475 11.5275
rfingers 7.12502
rthumb 3.10749 -18.4296
lclavicle -6.92765e-014 1.59028e-014
lhumerus 66.7491 -15.0856 91.5719
lradius 41.3116
lwrist 45.5475
lhand -50.9398 -0.558767
lfingers 7.12502
lthumb -23.4908 28.027
rfemur 2.58726 5.80174 4.10903
rtibia 33.3576
rfoot 8.91105 19.1304
rtoes -24.3014
lfemur -9.21101 4.2746 -12.5207
ltibia 28.9582
lfoot -11.9379 -10.2121
ltoes -5.9872
211
root 0.00677078 19.2371 -0.690622 -179.671 28.2938 183.392
lowerback -9.67797 4.02094 1.3866
upperback 4.61719 5.65798 -3.06389
thorax 10.881 3.00532 -2.98885
lowerneck -3.48855 1.94558 9.07895
upperneck 18.0422 3.07675 -1.96412
head 6.21684 2.31071 -1.89376
rclavicle -2.83268e-014 2.38542e-014
rhumerus -276.353 15.2657 234.093
rradius 9.53474
rwrist 70.5794
rhand -23.1456 11.6406
rfingers 7.12502
rthumb 3.30245 -18.3136
lclavicle -2.83268e-014 2.38542e-014
lhumerus 66.5726 -15.095 91.611
lradius 41.3861
lwrist 45.5594
lhand -50.8684 -1.05645
lfingers 7.12502
lthumb -23.4224 27.5381
rfemur 2.32334 5.7291 4.11407
rtibia 33.5576
rfoot 8.96987 18.9715
rtoes -24.4604
lfemur -9.22711 4.05692 -12.5387
ltibia 28.7801
lfoot -11.9222 -10.0738
ltoes -5.66452
212
root -0.00636983 19.2483 -0.692222 -179.541 28.3293 183.462
lowerback -9.82595 4.02528 1.50439
upperback 4.6249 5.64496 -3.05735
thorax 10.989 3.00598 -3.04054
lowerneck -3.45687 1.89963 9.00523
upperneck 18.2404 3.05113 -1.99022
head 6.27112 2.30482 -1.89122
rclavicle -1.78906e-014 7.95139e-015
rhumerus -276.662 15.1708 234.076
rradius 9.67356
rwrist 70.7792
rhand -22.9729 11.6988
rfingers 7.12502
rthumb 3.46923 -18.2527
lclavicle -1.78906e-014 7.95139e-015
lhumerus 66.4667 -15.0815 91.6689
lradius 41.4497
lwrist 45.5733
lhand -50.9035 -1.42181
lfingers 7.12502
lthumb -23.456 27.1684
rfemur 2.09499 5.66509 4.16156
rtibia 33.7069
rfoot 9.11941 18.7347
rtoes -24.2894
lfemur -9.26722 3.93994 -12.5142
ltibia 28.6496
lfoot -11.9298 -9.98556
ltoes -5.61245
213
root -0.0183056 19.2579 -0.693309 -179.407 28.3471 183.531
lowerback -9.98616 4.03904 1.6438
upperback 4.63317 5.64634 -3.08529
thorax 11.1127 3.01759 -3.1379
lowerneck -3.35794 1.84674 9.00534
upperneck 18.3566 3.01153 -2.00914
head 6.28845 2.29505 -1.90048
rclavicle 2.54444e-014 -5.88403e-014
rhumerus -276.854 15.0747 234.025
rradius 9.72719
rwrist 70.9895
rhand -22.8348 11.715
rfingers 7.12502
rthumb 3.60264 -18.2343
lclavicle 2.54444e-014 -5.88403e-014
lhumerus 66.3655 -15.1206 91.6677
lradius 41.5585
lwrist 45.6379
lhand -50.9555 -1.6459
lfingers 7.12502
lthumb -23.5059 26.9379
rfemur 1.88449 5.59602 4.20731
rtibia 33.8198
rfoot 9.34368 18.4974
rtoes -23.9863
lfemur -9.34498 3.97442 -12.4711
ltibia 28.5569
lfoot -11.9253 -10.0604
ltoes -5.60573
214
root -0.028717 19.2667 -0.693178 -179.321 28.3545 183.55
lowerback -10.1231 4.03858 1.70695
upperback 4.65735 5.63926 -3.10053
thorax 11.2302 3.0198 -3.1818
lowerneck -3.29157 1.79152 9.02111
upperneck 18.5051 2.97322 -2.07818
head 6.32246 2.284 -1.92788
rclavicle 3.13086e-014 -5.40694e-014
rhumerus -277.047 14.998 234
rradius 9.79544
rwrist 71.2076
rhand -22.7281 11.6873
rfingers 7.12502
rthumb 3.70569 -18.2602
lclavicle 3.13086e-014 -5.40694e-014
lhumerus 66.297 -15.1407 91.6911
lradius 41.6609
lwrist 45.7328
lhand -51.0461 -1.76553
lfingers 7.12502
lthumb -23.5928 26.8071
rfemur 1.71196 5.56424 4.20937
rtibia 33.9058
rfoot 9.63179 18.207
rtoes -23.4792
lfemur -9.41787 4.02816 -12.4708
ltibia 28.4896
lfoot -11.9236 -10.1704
ltoes -5.61138
215
root -0.0392351 19.2734 -0.691925 -179.264 28.3363 183.528
lowerback -10.2174 4.02962 1.73867
upperback 4.66379 5.62505 -3.12093
thorax 11.2987 3.01634 -3.21854
lowerneck -3.2132 1.7372 9.02398
upperneck 18.696 2.94329 -2.13517
head 6.36798 2.28046 -1.94865
rclavicle 6.69904e-014 -2.54444e-014
rhumerus -277.252 14.901 233.98
rradius 9.86015
rwrist 71.4269
rhand -22.663 11.656
rfingers 7.12502
rthumb 3.76855 -18.2905
lclavicle 6.69904e-014 -2.54444e-014
lhumerus 66.2039 -15.1611 91.7329
lradius 41.7676
lwrist 45.8108
lhand -51.1619 -1.68352
lfingers 7.12502
lthumb -23.7039 26.8748
rfemur 1.56119 5.54071 4.16972
rtibia 33.9797
rfoot 9.95862 17.8684
rtoes -22.6997
lfemur -9.50234 4.22666 -12.4952
ltibia 28.442
lfoot -11.856 -10.4304
ltoes -5.40957
216
root -0.0486787 19.2793 -0.689644 -179.208 28.3011 183.523
lowerback -10.2657 4.00422 1.75746
upperback 4.64361 5.58645 -3.12714
thorax 11.3043 2.99851 -3.24156
lowerneck -3.12487 1.68399 9.02687
upperneck 18.927 2.92466 -2.20895
head 6.4253 2.28414 -1.97399
rclavicle 5.60573e-014 6.20208e-014
rhumerus -277.482 14.8295 233.936
rradius 9.87603
rwrist 71.682
rhand -22.685 11.6163
rfingers 7.12502
rthumb 3.74732 -18.3305
lclavicle 5.60573e-014 6.20208e-014
lhumerus 66.0707 -15.1574 91.8016
lradius 41.8599
lwrist 45.8673
lhand -51.3131 -1.51942
lfingers 7.12502
lthumb -23.8489 27.02
rfemur 1.42827 5.53871 4.16234
rtibia 34.0493
rfoot 10.2779 17.5319
rtoes -21.8835
lfemur -9.59114 4.51287 -12.4884
ltibia 28.405
lfoot -11.7648 -10.8163
ltoes -5.05636
